# MagicaVoxel @ Ephtracy

# group
o 

# material
mtllib coin.mtl
usemtl palette

# normals
vn -1 0 0
vn 1 0 0
vn 0 0 1
vn 0 0 -1
vn 0 -1 0
vn 0 1 0

# texcoords
vt 0.337891 0.5
vt 0.376953 0.5
vt 0.423828 0.5
vt 0.431641 0.5
vt 0.685547 0.5
vt 0.716797 0.5

# verts
v -0.2 0.4 0.3
v -0.2 0.4 -0.3
v -0.2 0.5 0.5
v -0.2 0.5 0.3
v -0.2 0.5 -0.3
v -0.2 0.5 -0.5
v -0.2 0.6 0.6
v -0.2 0.6 0.5
v -0.2 0.6 0.3
v -0.2 0.6 -0.3
v -0.2 0.6 -0.5
v -0.2 0.6 -0.6
v -0.2 0.7 0.7
v -0.2 0.7 0.6
v -0.2 0.7 0.5
v -0.2 0.7 0.3
v -0.2 0.7 -0.3
v -0.2 0.7 -0.5
v -0.2 0.7 -0.6
v -0.2 0.7 -0.7
v -0.2 0.8 0.8
v -0.2 0.8 0.7
v -0.2 0.8 0.6
v -0.2 0.8 0.5
v -0.2 0.8 0.3
v -0.2 0.8 -0.3
v -0.2 0.8 -0.5
v -0.2 0.8 -0.6
v -0.2 0.8 -0.7
v -0.2 0.8 -0.8
v -0.2 1 0.9
v -0.2 1 0.8
v -0.2 1 0.7
v -0.2 1 0.6
v -0.2 1 0.5
v -0.2 1 0.3
v -0.2 1 -0.3
v -0.2 1 -0.5
v -0.2 1 -0.6
v -0.2 1 -0.7
v -0.2 1 -0.8
v -0.2 1 -0.9
v -0.2 1.1 0.4
v -0.2 1.1 0.3
v -0.2 1.1 -0.3
v -0.2 1.1 -0.4
v -0.2 1.2 0.2
v -0.2 1.2 -0.2
v -0.2 1.3 0.2
v -0.2 1.3 0.1
v -0.2 1.3 0
v -0.2 1.3 -0.1
v -0.2 1.3 -0.2
v -0.2 1.4 0.2
v -0.2 1.4 0.1
v -0.2 1.4 0
v -0.2 1.4 -0.1
v -0.2 1.4 -0.2
v -0.2 1.5 0.4
v -0.2 1.5 0.3
v -0.2 1.5 -0.3
v -0.2 1.5 -0.4
v -0.2 1.6 0.9
v -0.2 1.6 0.8
v -0.2 1.6 0.7
v -0.2 1.6 0.6
v -0.2 1.6 0.5
v -0.2 1.6 0.3
v -0.2 1.6 -0.3
v -0.2 1.6 -0.5
v -0.2 1.6 -0.6
v -0.2 1.6 -0.7
v -0.2 1.6 -0.8
v -0.2 1.6 -0.9
v -0.2 1.8 0.8
v -0.2 1.8 0.7
v -0.2 1.8 0.6
v -0.2 1.8 0.5
v -0.2 1.8 0.3
v -0.2 1.8 -0.3
v -0.2 1.8 -0.5
v -0.2 1.8 -0.6
v -0.2 1.8 -0.7
v -0.2 1.8 -0.8
v -0.2 1.9 0.7
v -0.2 1.9 0.6
v -0.2 1.9 0.5
v -0.2 1.9 0.3
v -0.2 1.9 -0.3
v -0.2 1.9 -0.5
v -0.2 1.9 -0.6
v -0.2 1.9 -0.7
v -0.2 2 0.6
v -0.2 2 0.5
v -0.2 2 0.3
v -0.2 2 -0.3
v -0.2 2 -0.5
v -0.2 2 -0.6
v -0.2 2.1 0.5
v -0.2 2.1 0.3
v -0.2 2.1 -0.3
v -0.2 2.1 -0.5
v -0.2 2.2 0.3
v -0.2 2.2 -0.3
v 0.2 0.4 0.3
v 0.2 0.4 -0.3
v 0.2 0.5 0.5
v 0.2 0.5 0.3
v 0.2 0.5 -0.3
v 0.2 0.5 -0.5
v 0.2 0.6 0.6
v 0.2 0.6 0.5
v 0.2 0.6 0.3
v 0.2 0.6 -0.3
v 0.2 0.6 -0.5
v 0.2 0.6 -0.6
v 0.2 0.7 0.7
v 0.2 0.7 0.6
v 0.2 0.7 0.5
v 0.2 0.7 0.3
v 0.2 0.7 -0.3
v 0.2 0.7 -0.5
v 0.2 0.7 -0.6
v 0.2 0.7 -0.7
v 0.2 0.8 0.8
v 0.2 0.8 0.7
v 0.2 0.8 0.6
v 0.2 0.8 0.5
v 0.2 0.8 0.3
v 0.2 0.8 -0.3
v 0.2 0.8 -0.5
v 0.2 0.8 -0.6
v 0.2 0.8 -0.7
v 0.2 0.8 -0.8
v 0.2 1 0.9
v 0.2 1 0.8
v 0.2 1 0.7
v 0.2 1 0.6
v 0.2 1 0.5
v 0.2 1 0.3
v 0.2 1 -0.3
v 0.2 1 -0.5
v 0.2 1 -0.6
v 0.2 1 -0.7
v 0.2 1 -0.8
v 0.2 1 -0.9
v 0.2 1.1 0.4
v 0.2 1.1 0.3
v 0.2 1.1 -0.3
v 0.2 1.1 -0.4
v 0.2 1.2 0.2
v 0.2 1.2 -0.2
v 0.2 1.3 0.2
v 0.2 1.3 0.1
v 0.2 1.3 0
v 0.2 1.3 -0.1
v 0.2 1.3 -0.2
v 0.2 1.4 0.2
v 0.2 1.4 0.1
v 0.2 1.4 0
v 0.2 1.4 -0.1
v 0.2 1.4 -0.2
v 0.2 1.5 0.4
v 0.2 1.5 0.3
v 0.2 1.5 -0.3
v 0.2 1.5 -0.4
v 0.2 1.6 0.9
v 0.2 1.6 0.8
v 0.2 1.6 0.7
v 0.2 1.6 0.6
v 0.2 1.6 0.5
v 0.2 1.6 0.3
v 0.2 1.6 -0.3
v 0.2 1.6 -0.5
v 0.2 1.6 -0.6
v 0.2 1.6 -0.7
v 0.2 1.6 -0.8
v 0.2 1.6 -0.9
v 0.2 1.8 0.8
v 0.2 1.8 0.7
v 0.2 1.8 0.6
v 0.2 1.8 0.5
v 0.2 1.8 0.3
v 0.2 1.8 -0.3
v 0.2 1.8 -0.5
v 0.2 1.8 -0.6
v 0.2 1.8 -0.7
v 0.2 1.8 -0.8
v 0.2 1.9 0.7
v 0.2 1.9 0.6
v 0.2 1.9 0.5
v 0.2 1.9 0.3
v 0.2 1.9 -0.3
v 0.2 1.9 -0.5
v 0.2 1.9 -0.6
v 0.2 1.9 -0.7
v 0.2 2 0.6
v 0.2 2 0.5
v 0.2 2 0.3
v 0.2 2 -0.3
v 0.2 2 -0.5
v 0.2 2 -0.6
v 0.2 2.1 0.5
v 0.2 2.1 0.3
v 0.2 2.1 -0.3
v 0.2 2.1 -0.5
v 0.2 2.2 0.3
v 0.2 2.2 -0.3
v -0.2 1 0.9
v -0.2 1.6 0.9
v 0.2 1 0.9
v 0.2 1.6 0.9
v -0.2 0.8 0.8
v -0.2 1 0.8
v -0.2 1.6 0.8
v -0.2 1.8 0.8
v 0.2 0.8 0.8
v 0.2 1 0.8
v 0.2 1.6 0.8
v 0.2 1.8 0.8
v -0.2 0.7 0.7
v -0.2 0.8 0.7
v -0.2 1.8 0.7
v -0.2 1.9 0.7
v 0.2 0.7 0.7
v 0.2 0.8 0.7
v 0.2 1.8 0.7
v 0.2 1.9 0.7
v -0.2 0.6 0.6
v -0.2 0.7 0.6
v -0.2 1.9 0.6
v -0.2 2 0.6
v 0.2 0.6 0.6
v 0.2 0.7 0.6
v 0.2 1.9 0.6
v 0.2 2 0.6
v -0.2 0.5 0.5
v -0.2 0.6 0.5
v -0.2 2 0.5
v -0.2 2.1 0.5
v 0.2 0.5 0.5
v 0.2 0.6 0.5
v 0.2 2 0.5
v 0.2 2.1 0.5
v -0.2 0.4 0.3
v -0.2 0.5 0.3
v -0.2 2.1 0.3
v -0.2 2.2 0.3
v 0.2 0.4 0.3
v 0.2 0.5 0.3
v 0.2 2.1 0.3
v 0.2 2.2 0.3
v -0.2 0.4 -0.3
v -0.2 0.5 -0.3
v -0.2 2.1 -0.3
v -0.2 2.2 -0.3
v 0.2 0.4 -0.3
v 0.2 0.5 -0.3
v 0.2 2.1 -0.3
v 0.2 2.2 -0.3
v -0.2 0.5 -0.5
v -0.2 0.6 -0.5
v -0.2 2 -0.5
v -0.2 2.1 -0.5
v 0.2 0.5 -0.5
v 0.2 0.6 -0.5
v 0.2 2 -0.5
v 0.2 2.1 -0.5
v -0.2 0.6 -0.6
v -0.2 0.7 -0.6
v -0.2 1.9 -0.6
v -0.2 2 -0.6
v 0.2 0.6 -0.6
v 0.2 0.7 -0.6
v 0.2 1.9 -0.6
v 0.2 2 -0.6
v -0.2 0.7 -0.7
v -0.2 0.8 -0.7
v -0.2 1.8 -0.7
v -0.2 1.9 -0.7
v 0.2 0.7 -0.7
v 0.2 0.8 -0.7
v 0.2 1.8 -0.7
v 0.2 1.9 -0.7
v -0.2 0.8 -0.8
v -0.2 1 -0.8
v -0.2 1.6 -0.8
v -0.2 1.8 -0.8
v 0.2 0.8 -0.8
v 0.2 1 -0.8
v 0.2 1.6 -0.8
v 0.2 1.8 -0.8
v -0.2 1 -0.9
v -0.2 1.6 -0.9
v 0.2 1 -0.9
v 0.2 1.6 -0.9
v -0.2 0.4 0.3
v 0.2 0.4 0.3
v -0.2 0.4 -0.3
v 0.2 0.4 -0.3
v -0.2 0.5 0.5
v 0.2 0.5 0.5
v -0.2 0.5 0.3
v 0.2 0.5 0.3
v -0.2 0.5 -0.3
v 0.2 0.5 -0.3
v -0.2 0.5 -0.5
v 0.2 0.5 -0.5
v -0.2 0.6 0.6
v 0.2 0.6 0.6
v -0.2 0.6 0.5
v 0.2 0.6 0.5
v -0.2 0.6 -0.5
v 0.2 0.6 -0.5
v -0.2 0.6 -0.6
v 0.2 0.6 -0.6
v -0.2 0.7 0.7
v 0.2 0.7 0.7
v -0.2 0.7 0.6
v 0.2 0.7 0.6
v -0.2 0.7 -0.6
v 0.2 0.7 -0.6
v -0.2 0.7 -0.7
v 0.2 0.7 -0.7
v -0.2 0.8 0.8
v 0.2 0.8 0.8
v -0.2 0.8 0.7
v 0.2 0.8 0.7
v -0.2 0.8 -0.7
v 0.2 0.8 -0.7
v -0.2 0.8 -0.8
v 0.2 0.8 -0.8
v -0.2 1 0.9
v 0.2 1 0.9
v -0.2 1 0.8
v 0.2 1 0.8
v -0.2 1 -0.8
v 0.2 1 -0.8
v -0.2 1 -0.9
v 0.2 1 -0.9
v -0.2 1.6 0.9
v 0.2 1.6 0.9
v -0.2 1.6 0.8
v 0.2 1.6 0.8
v -0.2 1.6 -0.8
v 0.2 1.6 -0.8
v -0.2 1.6 -0.9
v 0.2 1.6 -0.9
v -0.2 1.8 0.8
v 0.2 1.8 0.8
v -0.2 1.8 0.7
v 0.2 1.8 0.7
v -0.2 1.8 -0.7
v 0.2 1.8 -0.7
v -0.2 1.8 -0.8
v 0.2 1.8 -0.8
v -0.2 1.9 0.7
v 0.2 1.9 0.7
v -0.2 1.9 0.6
v 0.2 1.9 0.6
v -0.2 1.9 -0.6
v 0.2 1.9 -0.6
v -0.2 1.9 -0.7
v 0.2 1.9 -0.7
v -0.2 2 0.6
v 0.2 2 0.6
v -0.2 2 0.5
v 0.2 2 0.5
v -0.2 2 -0.5
v 0.2 2 -0.5
v -0.2 2 -0.6
v 0.2 2 -0.6
v -0.2 2.1 0.5
v 0.2 2.1 0.5
v -0.2 2.1 0.3
v 0.2 2.1 0.3
v -0.2 2.1 -0.3
v 0.2 2.1 -0.3
v -0.2 2.1 -0.5
v 0.2 2.1 -0.5
v -0.2 2.2 0.3
v 0.2 2.2 0.3
v -0.2 2.2 -0.3
v 0.2 2.2 -0.3

# faces
f 4/1/1 2/1/1 1/1/1
f 5/1/1 2/1/1 4/1/1
f 8/1/1 4/1/1 3/1/1
f 9/4/1 5/4/1 4/4/1
f 9/1/1 4/1/1 8/1/1
f 10/1/1 6/1/1 5/1/1
f 10/4/1 5/4/1 9/4/1
f 11/1/1 6/1/1 10/1/1
f 14/1/1 8/1/1 7/1/1
f 15/4/1 9/4/1 8/4/1
f 15/1/1 8/1/1 14/1/1
f 16/3/1 10/3/1 9/3/1
f 16/4/1 9/4/1 15/4/1
f 17/4/1 11/4/1 10/4/1
f 17/3/1 10/3/1 16/3/1
f 18/1/1 12/1/1 11/1/1
f 18/4/1 11/4/1 17/4/1
f 19/1/1 12/1/1 18/1/1
f 22/1/1 14/1/1 13/1/1
f 23/4/1 15/4/1 14/4/1
f 23/1/1 14/1/1 22/1/1
f 24/2/1 16/2/1 15/2/1
f 24/4/1 15/4/1 23/4/1
f 25/4/1 17/4/1 16/4/1
f 25/2/1 16/2/1 24/2/1
f 26/3/1 18/3/1 17/3/1
f 26/4/1 17/4/1 25/4/1
f 27/4/1 19/4/1 18/4/1
f 27/3/1 18/3/1 26/3/1
f 28/1/1 20/1/1 19/1/1
f 28/4/1 19/4/1 27/4/1
f 29/1/1 20/1/1 28/1/1
f 32/1/1 22/1/1 21/1/1
f 33/4/1 23/4/1 22/4/1
f 33/1/1 22/1/1 32/1/1
f 34/2/1 24/2/1 23/2/1
f 34/4/1 23/4/1 33/4/1
f 35/4/1 27/4/1 26/4/1
f 35/2/1 24/2/1 34/2/1
f 35/4/1 25/4/1 24/4/1
f 35/4/1 26/4/1 25/4/1
f 36/4/1 27/4/1 35/4/1
f 37/4/1 27/4/1 36/4/1
f 38/3/1 28/3/1 27/3/1
f 38/4/1 27/4/1 37/4/1
f 39/4/1 29/4/1 28/4/1
f 39/3/1 28/3/1 38/3/1
f 40/1/1 30/1/1 29/1/1
f 40/4/1 29/4/1 39/4/1
f 41/1/1 30/1/1 40/1/1
f 43/4/1 35/4/1 34/4/1
f 43/4/1 36/4/1 35/4/1
f 44/3/1 37/3/1 36/3/1
f 44/4/1 36/4/1 43/4/1
f 45/4/1 39/4/1 38/4/1
f 45/3/1 37/3/1 44/3/1
f 45/4/1 38/4/1 37/4/1
f 46/4/1 39/4/1 45/4/1
f 47/4/1 45/4/1 44/4/1
f 48/4/1 45/4/1 47/4/1
f 49/4/1 47/4/1 44/4/1
f 49/2/1 48/2/1 47/2/1
f 50/2/1 48/2/1 49/2/1
f 51/2/1 48/2/1 50/2/1
f 52/2/1 48/2/1 51/2/1
f 53/4/1 45/4/1 48/4/1
f 53/2/1 48/2/1 52/2/1
f 54/4/1 49/4/1 44/4/1
f 54/5/1 50/5/1 49/5/1
f 55/4/1 51/4/1 50/4/1
f 55/5/1 50/5/1 54/5/1
f 56/2/1 52/2/1 51/2/1
f 56/4/1 51/4/1 55/4/1
f 57/5/1 53/5/1 52/5/1
f 57/2/1 52/2/1 56/2/1
f 58/4/1 45/4/1 53/4/1
f 58/5/1 53/5/1 57/5/1
f 59/2/1 44/2/1 43/2/1
f 59/4/1 43/4/1 34/4/1
f 60/4/1 58/4/1 57/4/1
f 60/2/1 44/2/1 59/2/1
f 60/4/1 55/4/1 54/4/1
f 60/4/1 54/4/1 44/4/1
f 60/4/1 56/4/1 55/4/1
f 60/4/1 57/4/1 56/4/1
f 61/4/1 45/4/1 58/4/1
f 61/4/1 58/4/1 60/4/1
f 61/3/1 46/3/1 45/3/1
f 62/4/1 39/4/1 46/4/1
f 62/3/1 46/3/1 61/3/1
f 63/1/1 32/1/1 31/1/1
f 64/4/1 33/4/1 32/4/1
f 64/1/1 32/1/1 63/1/1
f 65/2/1 34/2/1 33/2/1
f 65/4/1 33/4/1 64/4/1
f 66/4/1 60/4/1 59/4/1
f 66/2/1 34/2/1 65/2/1
f 66/4/1 59/4/1 34/4/1
f 67/4/1 60/4/1 66/4/1
f 68/2/1 61/2/1 60/2/1
f 68/4/1 60/4/1 67/4/1
f 69/4/1 62/4/1 61/4/1
f 69/2/1 61/2/1 68/2/1
f 70/4/1 39/4/1 62/4/1
f 70/4/1 62/4/1 69/4/1
f 71/3/1 40/3/1 39/3/1
f 71/4/1 39/4/1 70/4/1
f 72/4/1 41/4/1 40/4/1
f 72/3/1 40/3/1 71/3/1
f 73/1/1 42/1/1 41/1/1
f 73/4/1 41/4/1 72/4/1
f 74/1/1 42/1/1 73/1/1
f 75/1/1 65/1/1 64/1/1
f 76/4/1 66/4/1 65/4/1
f 76/1/1 65/1/1 75/1/1
f 77/2/1 67/2/1 66/2/1
f 77/4/1 66/4/1 76/4/1
f 78/4/1 69/4/1 68/4/1
f 78/2/1 67/2/1 77/2/1
f 78/4/1 70/4/1 69/4/1
f 78/4/1 68/4/1 67/4/1
f 79/4/1 70/4/1 78/4/1
f 80/4/1 70/4/1 79/4/1
f 81/3/1 71/3/1 70/3/1
f 81/4/1 70/4/1 80/4/1
f 82/4/1 72/4/1 71/4/1
f 82/3/1 71/3/1 81/3/1
f 83/1/1 73/1/1 72/1/1
f 83/4/1 72/4/1 82/4/1
f 84/1/1 73/1/1 83/1/1
f 85/1/1 77/1/1 76/1/1
f 86/4/1 78/4/1 77/4/1
f 86/1/1 77/1/1 85/1/1
f 87/2/1 79/2/1 78/2/1
f 87/4/1 78/4/1 86/4/1
f 88/4/1 80/4/1 79/4/1
f 88/2/1 79/2/1 87/2/1
f 89/3/1 81/3/1 80/3/1
f 89/4/1 80/4/1 88/4/1
f 90/4/1 82/4/1 81/4/1
f 90/3/1 81/3/1 89/3/1
f 91/1/1 83/1/1 82/1/1
f 91/4/1 82/4/1 90/4/1
f 92/1/1 83/1/1 91/1/1
f 93/1/1 87/1/1 86/1/1
f 94/4/1 88/4/1 87/4/1
f 94/1/1 87/1/1 93/1/1
f 95/2/1 89/2/1 88/2/1
f 95/4/1 88/4/1 94/4/1
f 96/4/1 90/4/1 89/4/1
f 96/2/1 89/2/1 95/2/1
f 97/1/1 91/1/1 90/1/1
f 97/4/1 90/4/1 96/4/1
f 98/1/1 91/1/1 97/1/1
f 99/1/1 95/1/1 94/1/1
f 100/4/1 96/4/1 95/4/1
f 100/1/1 95/1/1 99/1/1
f 101/1/1 97/1/1 96/1/1
f 101/4/1 96/4/1 100/4/1
f 102/1/1 97/1/1 101/1/1
f 103/1/1 101/1/1 100/1/1
f 104/1/1 101/1/1 103/1/1
f 105/1/2 106/1/2 108/1/2
f 108/1/2 106/1/2 109/1/2
f 107/1/2 108/1/2 112/1/2
f 108/4/2 109/4/2 113/4/2
f 112/1/2 108/1/2 113/1/2
f 109/1/2 110/1/2 114/1/2
f 113/4/2 109/4/2 114/4/2
f 114/1/2 110/1/2 115/1/2
f 111/1/2 112/1/2 118/1/2
f 112/4/2 113/4/2 119/4/2
f 118/1/2 112/1/2 119/1/2
f 113/3/2 114/3/2 120/3/2
f 119/4/2 113/4/2 120/4/2
f 114/4/2 115/4/2 121/4/2
f 120/3/2 114/3/2 121/3/2
f 115/1/2 116/1/2 122/1/2
f 121/4/2 115/4/2 122/4/2
f 122/1/2 116/1/2 123/1/2
f 117/1/2 118/1/2 126/1/2
f 118/4/2 119/4/2 127/4/2
f 126/1/2 118/1/2 127/1/2
f 119/2/2 120/2/2 128/2/2
f 127/4/2 119/4/2 128/4/2
f 120/4/2 121/4/2 129/4/2
f 128/2/2 120/2/2 129/2/2
f 121/3/2 122/3/2 130/3/2
f 129/4/2 121/4/2 130/4/2
f 122/4/2 123/4/2 131/4/2
f 130/3/2 122/3/2 131/3/2
f 123/1/2 124/1/2 132/1/2
f 131/4/2 123/4/2 132/4/2
f 132/1/2 124/1/2 133/1/2
f 125/1/2 126/1/2 136/1/2
f 126/4/2 127/4/2 137/4/2
f 136/1/2 126/1/2 137/1/2
f 127/2/2 128/2/2 138/2/2
f 137/4/2 127/4/2 138/4/2
f 130/4/2 131/4/2 139/4/2
f 138/2/2 128/2/2 139/2/2
f 128/4/2 129/4/2 139/4/2
f 129/4/2 130/4/2 139/4/2
f 139/4/2 131/4/2 140/4/2
f 140/4/2 131/4/2 141/4/2
f 131/3/2 132/3/2 142/3/2
f 141/4/2 131/4/2 142/4/2
f 132/4/2 133/4/2 143/4/2
f 142/3/2 132/3/2 143/3/2
f 133/1/2 134/1/2 144/1/2
f 143/4/2 133/4/2 144/4/2
f 144/1/2 134/1/2 145/1/2
f 138/4/2 139/4/2 147/4/2
f 139/4/2 140/4/2 147/4/2
f 140/3/2 141/3/2 148/3/2
f 147/4/2 140/4/2 148/4/2
f 142/4/2 143/4/2 149/4/2
f 148/3/2 141/3/2 149/3/2
f 141/4/2 142/4/2 149/4/2
f 149/4/2 143/4/2 150/4/2
f 148/4/2 149/4/2 151/4/2
f 151/4/2 149/4/2 152/4/2
f 148/4/2 151/4/2 153/4/2
f 151/2/2 152/2/2 153/2/2
f 153/2/2 152/2/2 154/2/2
f 154/2/2 152/2/2 155/2/2
f 155/2/2 152/2/2 156/2/2
f 152/4/2 149/4/2 157/4/2
f 156/2/2 152/2/2 157/2/2
f 148/4/2 153/4/2 158/4/2
f 153/5/2 154/5/2 158/5/2
f 154/4/2 155/4/2 159/4/2
f 158/5/2 154/5/2 159/5/2
f 155/2/2 156/2/2 160/2/2
f 159/4/2 155/4/2 160/4/2
f 156/5/2 157/5/2 161/5/2
f 160/2/2 156/2/2 161/2/2
f 157/4/2 149/4/2 162/4/2
f 161/5/2 157/5/2 162/5/2
f 147/2/2 148/2/2 163/2/2
f 138/4/2 147/4/2 163/4/2
f 161/4/2 162/4/2 164/4/2
f 163/2/2 148/2/2 164/2/2
f 158/4/2 159/4/2 164/4/2
f 148/4/2 158/4/2 164/4/2
f 159/4/2 160/4/2 164/4/2
f 160/4/2 161/4/2 164/4/2
f 162/4/2 149/4/2 165/4/2
f 164/4/2 162/4/2 165/4/2
f 149/3/2 150/3/2 165/3/2
f 150/4/2 143/4/2 166/4/2
f 165/3/2 150/3/2 166/3/2
f 135/1/2 136/1/2 167/1/2
f 136/4/2 137/4/2 168/4/2
f 167/1/2 136/1/2 168/1/2
f 137/2/2 138/2/2 169/2/2
f 168/4/2 137/4/2 169/4/2
f 163/4/2 164/4/2 170/4/2
f 169/2/2 138/2/2 170/2/2
f 138/4/2 163/4/2 170/4/2
f 170/4/2 164/4/2 171/4/2
f 164/2/2 165/2/2 172/2/2
f 171/4/2 164/4/2 172/4/2
f 165/4/2 166/4/2 173/4/2
f 172/2/2 165/2/2 173/2/2
f 166/4/2 143/4/2 174/4/2
f 173/4/2 166/4/2 174/4/2
f 143/3/2 144/3/2 175/3/2
f 174/4/2 143/4/2 175/4/2
f 144/4/2 145/4/2 176/4/2
f 175/3/2 144/3/2 176/3/2
f 145/1/2 146/1/2 177/1/2
f 176/4/2 145/4/2 177/4/2
f 177/1/2 146/1/2 178/1/2
f 168/1/2 169/1/2 179/1/2
f 169/4/2 170/4/2 180/4/2
f 179/1/2 169/1/2 180/1/2
f 170/2/2 171/2/2 181/2/2
f 180/4/2 170/4/2 181/4/2
f 172/4/2 173/4/2 182/4/2
f 181/2/2 171/2/2 182/2/2
f 173/4/2 174/4/2 182/4/2
f 171/4/2 172/4/2 182/4/2
f 182/4/2 174/4/2 183/4/2
f 183/4/2 174/4/2 184/4/2
f 174/3/2 175/3/2 185/3/2
f 184/4/2 174/4/2 185/4/2
f 175/4/2 176/4/2 186/4/2
f 185/3/2 175/3/2 186/3/2
f 176/1/2 177/1/2 187/1/2
f 186/4/2 176/4/2 187/4/2
f 187/1/2 177/1/2 188/1/2
f 180/1/2 181/1/2 189/1/2
f 181/4/2 182/4/2 190/4/2
f 189/1/2 181/1/2 190/1/2
f 182/2/2 183/2/2 191/2/2
f 190/4/2 182/4/2 191/4/2
f 183/4/2 184/4/2 192/4/2
f 191/2/2 183/2/2 192/2/2
f 184/3/2 185/3/2 193/3/2
f 192/4/2 184/4/2 193/4/2
f 185/4/2 186/4/2 194/4/2
f 193/3/2 185/3/2 194/3/2
f 186/1/2 187/1/2 195/1/2
f 194/4/2 186/4/2 195/4/2
f 195/1/2 187/1/2 196/1/2
f 190/1/2 191/1/2 197/1/2
f 191/4/2 192/4/2 198/4/2
f 197/1/2 191/1/2 198/1/2
f 192/2/2 193/2/2 199/2/2
f 198/4/2 192/4/2 199/4/2
f 193/4/2 194/4/2 200/4/2
f 199/2/2 193/2/2 200/2/2
f 194/1/2 195/1/2 201/1/2
f 200/4/2 194/4/2 201/4/2
f 201/1/2 195/1/2 202/1/2
f 198/1/2 199/1/2 203/1/2
f 199/4/2 200/4/2 204/4/2
f 203/1/2 199/1/2 204/1/2
f 200/1/2 201/1/2 205/1/2
f 204/4/2 200/4/2 205/4/2
f 205/1/2 201/1/2 206/1/2
f 204/1/2 205/1/2 207/1/2
f 207/1/2 205/1/2 208/1/2
f 211/1/3 210/1/3 209/1/3
f 212/1/3 210/1/3 211/1/3
f 217/1/3 214/1/3 213/1/3
f 218/1/3 214/1/3 217/1/3
f 219/1/3 216/1/3 215/1/3
f 220/1/3 216/1/3 219/1/3
f 225/1/3 222/1/3 221/1/3
f 226/1/3 222/1/3 225/1/3
f 227/1/3 224/1/3 223/1/3
f 228/1/3 224/1/3 227/1/3
f 233/1/3 230/1/3 229/1/3
f 234/1/3 230/1/3 233/1/3
f 235/1/3 232/1/3 231/1/3
f 236/1/3 232/1/3 235/1/3
f 241/1/3 238/1/3 237/1/3
f 242/1/3 238/1/3 241/1/3
f 243/1/3 240/1/3 239/1/3
f 244/1/3 240/1/3 243/1/3
f 249/1/3 246/1/3 245/1/3
f 250/1/3 246/1/3 249/1/3
f 251/1/3 248/1/3 247/1/3
f 252/1/3 248/1/3 251/1/3
f 253/1/4 254/1/4 257/1/4
f 257/1/4 254/1/4 258/1/4
f 255/1/4 256/1/4 259/1/4
f 259/1/4 256/1/4 260/1/4
f 261/1/4 262/1/4 265/1/4
f 265/1/4 262/1/4 266/1/4
f 263/1/4 264/1/4 267/1/4
f 267/1/4 264/1/4 268/1/4
f 269/1/4 270/1/4 273/1/4
f 273/1/4 270/1/4 274/1/4
f 271/1/4 272/1/4 275/1/4
f 275/1/4 272/1/4 276/1/4
f 277/1/4 278/1/4 281/1/4
f 281/1/4 278/1/4 282/1/4
f 279/1/4 280/1/4 283/1/4
f 283/1/4 280/1/4 284/1/4
f 285/1/4 286/1/4 289/1/4
f 289/1/4 286/1/4 290/1/4
f 287/1/4 288/1/4 291/1/4
f 291/1/4 288/1/4 292/1/4
f 293/1/4 294/1/4 295/1/4
f 295/1/4 294/1/4 296/1/4
f 299/1/5 298/1/5 297/1/5
f 300/1/5 298/1/5 299/1/5
f 303/1/5 302/1/5 301/1/5
f 304/1/5 302/1/5 303/1/5
f 307/1/5 306/1/5 305/1/5
f 308/1/5 306/1/5 307/1/5
f 311/1/5 310/1/5 309/1/5
f 312/1/5 310/1/5 311/1/5
f 315/1/5 314/1/5 313/1/5
f 316/1/5 314/1/5 315/1/5
f 319/1/5 318/1/5 317/1/5
f 320/1/5 318/1/5 319/1/5
f 323/1/5 322/1/5 321/1/5
f 324/1/5 322/1/5 323/1/5
f 327/1/5 326/1/5 325/1/5
f 328/1/5 326/1/5 327/1/5
f 331/1/5 330/1/5 329/1/5
f 332/1/5 330/1/5 331/1/5
f 335/1/5 334/1/5 333/1/5
f 336/1/5 334/1/5 335/1/5
f 339/1/5 338/1/5 337/1/5
f 340/1/5 338/1/5 339/1/5
f 341/1/6 342/1/6 343/1/6
f 343/1/6 342/1/6 344/1/6
f 345/1/6 346/1/6 347/1/6
f 347/1/6 346/1/6 348/1/6
f 349/1/6 350/1/6 351/1/6
f 351/1/6 350/1/6 352/1/6
f 353/1/6 354/1/6 355/1/6
f 355/1/6 354/1/6 356/1/6
f 357/1/6 358/1/6 359/1/6
f 359/1/6 358/1/6 360/1/6
f 361/1/6 362/1/6 363/1/6
f 363/1/6 362/1/6 364/1/6
f 365/1/6 366/1/6 367/1/6
f 367/1/6 366/1/6 368/1/6
f 369/1/6 370/1/6 371/1/6
f 371/1/6 370/1/6 372/1/6
f 373/1/6 374/1/6 375/1/6
f 375/1/6 374/1/6 376/1/6
f 377/1/6 378/1/6 379/1/6
f 379/1/6 378/1/6 380/1/6
f 381/1/6 382/1/6 383/1/6
f 383/1/6 382/1/6 384/1/6
