# MagicaVoxel @ Ephtracy

# group
o 

# material
mtllib ostrov1.mtl
usemtl palette

# normals
vn -1 0 0
vn 1 0 0
vn 0 0 1
vn 0 0 -1
vn 0 -1 0
vn 0 1 0

# texcoords
vt 0.146484 0.5
vt 0.208984 0.5
vt 0.306641 0.5
vt 0.615234 0.5

# verts
v -2 -0.4 2
v -2 -0.4 -2
v -2 -0.1 2
v -2 -0.1 -2
v -2 0.2 2
v -2 0.2 1
v -2 0.2 0.0999999
v -2 0.2 -0.9
v -2 0.3 1
v -2 0.3 0.0999999
v -2 0.3 -0.9
v -2 0.3 -2
v -2 1.1 1
v -2 1.1 0.0999999
v -2 1.1 -0.9
v -2 1.1 -2
v -2 2.1 2
v -2 2.1 -2
v -2 3.1 2
v -2 3.1 -2
v -1 0.2 2
v -1 0.2 1.9
v -1 0.2 1
v -1 0.2 0.0999999
v -1 0.2 -0.9
v -1 0.7 2
v -1 0.7 1.9
v -1 1.1 2
v -1 1.1 1
v -1 1.1 0.0999999
v -1 1.1 -0.9
v -1 1.1 -1
v -1 2.1 1
v -1 2.1 -1
v 2.38419e-007 0.2 -1
v 2.38419e-007 0.2 -1.9
v 2.38419e-007 0.2 -2
v 2.38419e-007 0.4 -1.9
v 2.38419e-007 0.4 -2
v 2.38419e-007 1.1 -1
v 2.38419e-007 1.1 -2
v -1 0.2 -1
v -1 0.2 -2
v -1 1.1 -1
v -1 1.1 -2
v 1 -0.4 -1
v 1 -0.4 -2
v 1 -0.1 -1
v 1 -0.1 -2
v 1 0.4 -1
v 1 0.4 -2
v 1 1.1 1
v 1 1.1 -1
v 1 1.1 -2
v 1 2.1 1
v 1 2.1 -1
v 2 -0.4 2
v 2 -0.4 -1
v 2 -0.1 2
v 2 -0.1 -1
v 2 0.4 1
v 2 0.4 -2.38419e-007
v 2 0.8 2
v 2 0.8 1
v 2 0.8 -2.38419e-007
v 2 0.8 -1
v 2 1.1 2
v 2 1.1 -1
v 2 2.1 2
v 2 2.1 -2
v 2 3.1 2
v 2 3.1 -2
v -2 -0.4 2
v -2 -0.1 2
v -2 0.2 2
v -2 2.1 2
v -2 3.1 2
v -1 0.2 2
v -1 0.7 2
v -1 1.1 2
v 2.38419e-007 0.3 2
v 2.38419e-007 0.7 2
v 0.9 0.3 2
v 0.9 0.8 2
v 2 -0.4 2
v 2 -0.1 2
v 2 0.8 2
v 2 1.1 2
v 2 2.1 2
v 2 3.1 2
v -2 0.2 1
v -2 0.3 1
v -2 1.1 1
v -1.9 0.2 1
v -1.9 0.3 1
v -1 0.2 1
v -1 1.1 1
v -1 2.1 1
v 1 1.1 1
v 1 2.1 1
v -2 0.2 -0.9
v -2 0.3 -0.9
v -2 1.1 -0.9
v -1.9 0.2 -0.9
v -1.9 0.3 -0.9
v -1 0.2 -0.9
v -1 1.1 -0.9
v -2 0.2 0.0999999
v -2 0.3 0.0999999
v -2 1.1 0.0999999
v -1.9 0.2 0.0999999
v -1.9 0.3 0.0999999
v -1 0.2 0.0999999
v -1 1.1 0.0999999
v -1 0.2 -1
v -1 1.1 -1
v -1 2.1 -1
v 2.38419e-007 0.2 -1
v 2.38419e-007 1.1 -1
v 1 -0.4 -1
v 1 -0.1 -1
v 1 0.4 -1
v 1 1.1 -1
v 1 2.1 -1
v 1.9 0.4 -1
v 1.9 0.8 -1
v 2 -0.4 -1
v 2 -0.1 -1
v 2 0.8 -1
v 2 1.1 -1
v -2 -0.4 -2
v -2 -0.1 -2
v -2 0.3 -2
v -2 1.1 -2
v -2 2.1 -2
v -2 3.1 -2
v -1.1 0.2 -2
v -1.1 0.3 -2
v -1 0.2 -2
v -1 1.1 -2
v 2.38419e-007 0.2 -2
v 2.38419e-007 0.4 -2
v 2.38419e-007 1.1 -2
v 1 -0.4 -2
v 1 -0.1 -2
v 1 0.4 -2
v 1 1.1 -2
v 2 2.1 -2
v 2 3.1 -2
v -2 -0.4 2
v 2 -0.4 2
v -1.9 -0.4 1.9
v 1.9 -0.4 1.9
v 0.8 -0.4 -0.9
v 1.9 -0.4 -0.9
v 0.8 -0.4 -1
v 0.9 -0.4 -1
v 1 -0.4 -1
v 2 -0.4 -1
v -1.9 -0.4 -1.9
v 0.9 -0.4 -1.9
v -2 -0.4 -2
v 1 -0.4 -2
v -2 2.1 2
v 2 2.1 2
v -1 2.1 1
v 1 2.1 1
v -1 2.1 -1
v 1 2.1 -1
v -2 2.1 -2
v 2 2.1 -2
v -2 0.2 2
v -1 0.2 2
v -1 0.2 1.9
v -2 0.2 1
v -1.9 0.2 1
v -1 0.2 1
v -2 0.2 0.0999999
v -1.9 0.2 0.0999999
v -1 0.2 0.0999999
v -2 0.2 -0.9
v -1.9 0.2 -0.9
v -1 0.2 -0.9
v -1 0.2 -1
v 2.38419e-007 0.2 -1
v 2.38419e-007 0.2 -1.9
v -1 0.2 -2
v 2.38419e-007 0.2 -2
v -1 1.1 2
v 2 1.1 2
v -2 1.1 1
v -1 1.1 1
v 1 1.1 1
v -2 1.1 0.0999999
v -1 1.1 0.0999999
v -2 1.1 -0.9
v -1 1.1 -0.9
v -1 1.1 -1
v 2.38419e-007 1.1 -1
v 1 1.1 -1
v 2 1.1 -1
v -2 1.1 -2
v -1 1.1 -2
v 2.38419e-007 1.1 -2
v 1 1.1 -2
v -2 3.1 2
v 2 3.1 2
v -2 3.1 -2
v 2 3.1 -2

# faces
f 3/1/1 2/1/1 1/1/1
f 4/1/1 2/1/1 3/1/1
f 5/2/1 4/2/1 3/2/1
f 6/2/1 4/2/1 5/2/1
f 7/2/1 4/2/1 6/2/1
f 8/2/1 4/2/1 7/2/1
f 9/2/1 7/2/1 6/2/1
f 10/2/1 7/2/1 9/2/1
f 11/2/1 4/2/1 8/2/1
f 12/2/1 4/2/1 11/2/1
f 13/3/1 10/3/1 9/3/1
f 14/3/1 10/3/1 13/3/1
f 15/3/1 12/3/1 11/3/1
f 16/3/1 12/3/1 15/3/1
f 19/4/1 18/4/1 17/4/1
f 20/4/1 18/4/1 19/4/1
f 26/2/1 22/2/1 21/2/1
f 27/3/1 23/3/1 22/3/1
f 27/2/1 22/2/1 26/2/1
f 28/3/1 27/3/1 26/3/1
f 29/3/1 23/3/1 27/3/1
f 29/3/1 27/3/1 28/3/1
f 30/3/1 25/3/1 24/3/1
f 31/3/1 25/3/1 30/3/1
f 33/3/1 32/3/1 31/3/1
f 33/3/1 31/3/1 30/3/1
f 33/3/1 30/3/1 29/3/1
f 34/3/1 32/3/1 33/3/1
f 38/3/1 36/3/1 35/3/1
f 38/2/1 37/2/1 36/2/1
f 39/2/1 37/2/1 38/2/1
f 40/3/1 38/3/1 35/3/1
f 40/3/1 39/3/1 38/3/1
f 41/3/1 39/3/1 40/3/1
f 42/3/2 43/3/2 44/3/2
f 44/3/2 43/3/2 45/3/2
f 46/1/2 47/1/2 48/1/2
f 48/1/2 47/1/2 49/1/2
f 48/2/2 49/2/2 50/2/2
f 50/2/2 49/2/2 51/2/2
f 50/3/2 51/3/2 53/3/2
f 53/3/2 51/3/2 54/3/2
f 52/3/2 53/3/2 55/3/2
f 55/3/2 53/3/2 56/3/2
f 57/1/2 58/1/2 59/1/2
f 59/1/2 58/1/2 60/1/2
f 59/2/2 60/2/2 61/2/2
f 61/2/2 60/2/2 62/2/2
f 59/2/2 61/2/2 63/2/2
f 61/3/2 62/3/2 64/3/2
f 63/2/2 61/2/2 64/2/2
f 62/2/2 60/2/2 65/2/2
f 64/3/2 62/3/2 65/3/2
f 65/2/2 60/2/2 66/2/2
f 63/3/2 64/3/2 67/3/2
f 64/3/2 65/3/2 67/3/2
f 65/3/2 66/3/2 67/3/2
f 67/3/2 66/3/2 68/3/2
f 69/4/2 70/4/2 71/4/2
f 71/4/2 70/4/2 72/4/2
f 78/2/3 75/2/3 74/2/3
f 81/2/3 79/2/3 78/2/3
f 82/3/3 80/3/3 79/3/3
f 82/2/3 79/2/3 81/2/3
f 83/2/3 81/2/3 78/2/3
f 83/3/3 82/3/3 81/3/3
f 84/3/3 80/3/3 82/3/3
f 84/3/3 82/3/3 83/3/3
f 85/1/3 74/1/3 73/1/3
f 86/2/3 78/2/3 74/2/3
f 86/1/3 74/1/3 85/1/3
f 86/2/3 83/2/3 78/2/3
f 86/2/3 84/2/3 83/2/3
f 87/3/3 80/3/3 84/3/3
f 87/2/3 84/2/3 86/2/3
f 88/3/3 80/3/3 87/3/3
f 89/4/3 77/4/3 76/4/3
f 90/4/3 77/4/3 89/4/3
f 94/2/3 92/2/3 91/2/3
f 95/3/3 93/3/3 92/3/3
f 95/2/3 92/2/3 94/2/3
f 96/3/3 95/3/3 94/3/3
f 97/3/3 93/3/3 95/3/3
f 97/3/3 95/3/3 96/3/3
f 99/3/3 98/3/3 97/3/3
f 100/3/3 98/3/3 99/3/3
f 104/2/3 102/2/3 101/2/3
f 105/3/3 103/3/3 102/3/3
f 105/2/3 102/2/3 104/2/3
f 106/3/3 105/3/3 104/3/3
f 107/3/3 103/3/3 105/3/3
f 107/3/3 105/3/3 106/3/3
f 108/2/4 109/2/4 111/2/4
f 109/3/4 110/3/4 112/3/4
f 111/2/4 109/2/4 112/2/4
f 111/3/4 112/3/4 113/3/4
f 112/3/4 110/3/4 114/3/4
f 113/3/4 112/3/4 114/3/4
f 115/3/4 116/3/4 118/3/4
f 116/3/4 117/3/4 118/3/4
f 118/3/4 117/3/4 119/3/4
f 119/3/4 117/3/4 123/3/4
f 123/3/4 117/3/4 124/3/4
f 121/2/4 122/2/4 125/2/4
f 122/3/4 123/3/4 125/3/4
f 125/3/4 123/3/4 126/3/4
f 120/1/4 121/1/4 127/1/4
f 121/2/4 125/2/4 128/2/4
f 127/1/4 121/1/4 128/1/4
f 125/2/4 126/2/4 128/2/4
f 126/3/4 123/3/4 129/3/4
f 128/2/4 126/2/4 129/2/4
f 129/3/4 123/3/4 130/3/4
f 132/2/4 133/2/4 137/2/4
f 133/3/4 134/3/4 138/3/4
f 137/2/4 133/2/4 138/2/4
f 132/2/4 137/2/4 139/2/4
f 137/3/4 138/3/4 139/3/4
f 138/3/4 134/3/4 140/3/4
f 139/3/4 138/3/4 140/3/4
f 132/2/4 139/2/4 141/2/4
f 131/1/4 132/1/4 144/1/4
f 132/2/4 141/2/4 145/2/4
f 144/1/4 132/1/4 145/1/4
f 141/2/4 142/2/4 145/2/4
f 142/3/4 143/3/4 146/3/4
f 145/2/4 142/2/4 146/2/4
f 146/3/4 143/3/4 147/3/4
f 135/4/4 136/4/4 148/4/4
f 148/4/4 136/4/4 149/4/4
f 152/1/5 151/1/5 150/1/5
f 153/1/5 151/1/5 152/1/5
f 154/3/5 153/3/5 152/3/5
f 155/1/5 151/1/5 153/1/5
f 155/3/5 153/3/5 154/3/5
f 156/3/5 154/3/5 152/3/5
f 156/1/5 155/1/5 154/1/5
f 157/1/5 155/1/5 156/1/5
f 158/1/5 155/1/5 157/1/5
f 159/1/5 151/1/5 155/1/5
f 159/1/5 155/1/5 158/1/5
f 160/1/5 152/1/5 150/1/5
f 160/3/5 156/3/5 152/3/5
f 160/3/5 157/3/5 156/3/5
f 161/1/5 158/1/5 157/1/5
f 161/3/5 157/3/5 160/3/5
f 162/1/5 160/1/5 150/1/5
f 162/1/5 161/1/5 160/1/5
f 163/1/5 158/1/5 161/1/5
f 163/1/5 161/1/5 162/1/5
f 166/4/5 165/4/5 164/4/5
f 167/4/5 165/4/5 166/4/5
f 168/4/5 166/4/5 164/4/5
f 169/4/5 165/4/5 167/4/5
f 170/4/5 168/4/5 164/4/5
f 170/4/5 169/4/5 168/4/5
f 171/4/5 165/4/5 169/4/5
f 171/4/5 169/4/5 170/4/5
f 172/2/6 173/2/6 174/2/6
f 172/2/6 174/2/6 175/2/6
f 175/2/6 174/2/6 176/2/6
f 176/2/6 174/2/6 177/2/6
f 178/2/6 179/2/6 181/2/6
f 179/2/6 180/2/6 181/2/6
f 181/2/6 180/2/6 182/2/6
f 182/2/6 180/2/6 183/2/6
f 184/2/6 185/2/6 186/2/6
f 184/2/6 186/2/6 187/2/6
f 187/2/6 186/2/6 188/2/6
f 189/3/6 190/3/6 192/3/6
f 192/3/6 190/3/6 193/3/6
f 191/3/6 192/3/6 194/3/6
f 194/3/6 192/3/6 195/3/6
f 196/3/6 197/3/6 198/3/6
f 193/3/6 190/3/6 200/3/6
f 200/3/6 190/3/6 201/3/6
f 196/3/6 198/3/6 202/3/6
f 202/3/6 198/3/6 203/3/6
f 199/3/6 200/3/6 204/3/6
f 204/3/6 200/3/6 205/3/6
f 206/4/6 207/4/6 208/4/6
f 208/4/6 207/4/6 209/4/6
